<svg width="19" height="19" viewBox="0 0 19 19" fill="none" xmlns="http://www.w3.org/2000/svg">
<g clip-path="url(#clip0_179_1104)">
<path d="M12.0364 4.20877H11.671C11.5542 4.20877 11.4394 4.25662 11.3569 4.33983C11.2768 4.41992 11.2334 4.52463 11.2345 4.61755L10.5168 9.92853C10.4897 10.1269 10.5847 10.3605 10.7446 10.4847C10.7446 10.4847 11.0389 10.7052 11.1891 10.8099L11.2255 10.8255L11.2324 14.7687C11.2324 15.01 11.4286 15.2073 11.671 15.2073H12.0364C12.2781 15.2073 12.4754 15.0107 12.4754 14.7687V4.64667C12.4743 4.40536 12.2781 4.20877 12.0364 4.20877ZM11.0119 10.1373C10.9783 10.1109 10.9457 10.0294 10.9505 9.98747L11.6419 4.86441C11.6582 4.7441 11.7525 4.64667 11.8534 4.64667C11.9543 4.64667 12.0357 4.74479 12.0357 4.86614V12.0307H11.6661L11.6637 10.7267C11.6637 10.6639 11.629 10.5949 11.5791 10.5582L11.0119 10.1373ZM11.8534 14.7683C11.7525 14.7676 11.6707 14.6702 11.6707 14.5489L11.6672 12.7238H12.0357V14.5489C12.0361 14.6706 11.9543 14.7683 11.8534 14.7683Z" fill="#C58756"/>
<path d="M8.79115 4.64667C8.55365 4.64667 8.35949 4.84325 8.35949 5.08526V7.00849C8.35949 7.12984 8.29223 7.22762 8.20902 7.22762C8.12615 7.22762 8.05854 7.12984 8.05854 7.00884C8.0582 6.45929 8.0582 5.06758 8.0582 5.06758C8.0582 4.81586 7.80302 4.64667 7.55095 4.64667C7.32073 4.64667 7.05654 4.84291 7.05654 5.09462V7.013C7.05654 7.13435 6.98927 7.23212 6.90606 7.23212C6.8232 7.23212 6.75594 7.13435 6.75594 7.013V5.08526C6.75594 4.8436 6.56524 4.64667 6.33086 4.64667C6.19426 4.64667 5.68701 4.75658 5.68701 5.08526V7.488C5.68701 7.60935 5.71371 7.8576 5.81322 8.01986C5.96022 8.2584 6.42309 8.6072 7.11652 8.72889C7.04024 8.8076 6.99309 8.91439 6.99309 9.03192V14.7683C6.99309 15.0096 7.18968 15.2069 7.43168 15.2069H7.79712C8.03913 15.2069 8.23606 15.0103 8.23606 14.7683V12.7241H8.23676V12.0307H8.23606V9.03192C8.23606 8.91369 8.18856 8.8069 8.11229 8.72785C8.73325 8.61482 9.19334 8.30763 9.34347 8.01223C9.43674 7.82882 9.44194 7.54313 9.44194 7.488V5.08526C9.44229 4.75692 8.92915 4.64667 8.79115 4.64667ZM7.79851 14.5492C7.79851 14.6706 7.71668 14.7687 7.61579 14.7687C7.51489 14.7687 7.43272 14.6706 7.43272 14.5492V12.7241H7.79851V14.5492ZM7.43272 12.0307V9.25105C7.43272 9.1297 7.51455 9.03158 7.61544 9.03158C7.71634 9.03158 7.79781 9.1297 7.79781 9.25105L7.79816 12.0307H7.43272ZM9.00369 7.48765C9.00369 7.61247 8.9815 7.75844 8.95307 7.81322C8.86015 7.99559 8.37232 8.3371 7.61579 8.3371C6.84435 8.3371 6.30521 7.98068 6.18767 7.78964C6.15577 7.73763 6.1263 7.5934 6.1263 7.48765V5.14871C6.18177 5.11855 6.28475 5.08561 6.31838 5.08492V7.22727C6.31838 7.46893 6.51462 7.66898 6.74935 7.66864H7.05376C7.29542 7.66864 7.49236 7.47829 7.49236 7.23663V5.11577C7.50657 5.10156 7.53847 5.08561 7.56517 5.08492C7.58354 5.08492 7.60573 5.0922 7.61995 5.10017V7.20924C7.61995 7.5244 7.81307 7.66552 8.00376 7.66552H8.35984C8.6015 7.66552 8.79843 7.46893 8.79843 7.22692L8.7915 5.08457C8.83623 5.08492 8.94648 5.11855 9.00369 5.1494V7.48765Z" fill="#C58756"/>
<path d="M9.5 0C4.26182 0 0 4.26182 0 9.5C0 14.7382 4.26182 19 9.5 19C14.7382 19 19 14.7382 19 9.5C19 4.26182 14.7382 0 9.5 0ZM9.5 18.3069C4.64425 18.3069 0.693431 14.3561 0.693431 9.50035C0.693431 4.6446 4.64425 0.693777 9.5 0.693777C14.3557 0.693777 18.3066 4.6446 18.3066 9.50035C18.3066 14.3561 14.3557 18.3069 9.5 18.3069Z" fill="#C58756"/>
<path d="M9.49965 1.84592C5.27908 1.84592 1.84521 5.27979 1.84521 9.50035C1.84521 13.7213 5.27874 17.1548 9.49965 17.1548C13.7206 17.1548 17.1541 13.7213 17.1541 9.50035C17.1541 5.27979 13.7202 1.84592 9.49965 1.84592ZM9.49965 16.8081C5.47012 16.8081 2.19193 13.5299 2.19193 9.50035C2.19193 5.47083 5.47012 2.19263 9.49965 2.19263C13.5292 2.19263 16.8074 5.47083 16.8074 9.50035C16.8074 13.5299 13.5288 16.8081 9.49965 16.8081Z" fill="#C58756"/>
</g>
<defs>
<clipPath id="clip0_179_1104">
<rect width="19" height="19" fill="white"/>
</clipPath>
</defs>
</svg>
