<svg width="19" height="20" viewBox="0 0 19 20" fill="none" xmlns="http://www.w3.org/2000/svg">
<g clip-path="url(#clip0_2414_720)">
<path d="M12.0359 4.70898H11.6705C11.5537 4.70898 11.4389 4.75683 11.3564 4.84004C11.2763 4.92013 11.233 5.02484 11.234 5.11776L10.5163 10.4287C10.4893 10.6271 10.5843 10.8608 10.7441 10.9849C10.7441 10.9849 11.0384 11.2054 11.1886 11.3101L11.225 11.3257L11.2319 15.2689C11.2319 15.5102 11.4282 15.7075 11.6705 15.7075H12.0359C12.2776 15.7075 12.4749 15.5109 12.4749 15.2689V5.14689C12.4738 4.90557 12.2776 4.70898 12.0359 4.70898ZM11.0114 10.6375C10.9778 10.6111 10.9452 10.5296 10.95 10.4877L11.6414 5.36462C11.6577 5.24431 11.752 5.14689 11.8529 5.14689C11.9538 5.14689 12.0353 5.24501 12.0353 5.36636V12.5309H11.6657L11.6632 11.2269C11.6632 11.1641 11.6286 11.0951 11.5786 11.0584L11.0114 10.6375ZM11.8529 15.2685C11.752 15.2679 11.6702 15.1704 11.6702 15.0491L11.6667 13.224H12.0353V15.0491C12.0356 15.1708 11.9538 15.2685 11.8529 15.2685Z" fill="#874613"/>
<path d="M8.79164 5.14648C8.55414 5.14648 8.35998 5.34307 8.35998 5.58508V7.50831C8.35998 7.62966 8.29272 7.72743 8.20951 7.72743C8.12664 7.72743 8.05903 7.62966 8.05903 7.50866C8.05869 6.95911 8.05869 5.5674 8.05869 5.5674C8.05869 5.31568 7.8035 5.14648 7.55144 5.14648C7.32122 5.14648 7.05703 5.34273 7.05703 5.59444V7.51282C7.05703 7.63417 6.98976 7.73194 6.90655 7.73194C6.82369 7.73194 6.75642 7.63417 6.75642 7.51282V5.58508C6.75642 5.34342 6.56573 5.14648 6.33135 5.14648C6.19474 5.14648 5.6875 5.25639 5.6875 5.58508V7.98782C5.6875 8.10917 5.7142 8.35741 5.8137 8.51968C5.96071 8.75822 6.42358 9.10701 7.11701 9.22871C7.04073 9.30741 6.99358 9.4142 6.99358 9.53174V15.2681C6.99358 15.5095 7.19016 15.7067 7.43217 15.7067H7.79761C8.03962 15.7067 8.23655 15.5102 8.23655 15.2681V13.2239H8.23724V12.5305H8.23655V9.53174C8.23655 9.41351 8.18905 9.30672 8.11277 9.22767C8.73374 9.11464 9.19383 8.80745 9.34396 8.51205C9.43723 8.32864 9.44243 8.04294 9.44243 7.98782V5.58508C9.44277 5.25674 8.92963 5.14648 8.79164 5.14648ZM7.799 15.049C7.799 15.1704 7.71717 15.2685 7.61628 15.2685C7.51538 15.2685 7.43321 15.1704 7.43321 15.049V13.2239H7.799V15.049ZM7.43321 12.5305V9.75086C7.43321 9.62951 7.51504 9.53139 7.61593 9.53139C7.71683 9.53139 7.7983 9.62951 7.7983 9.75086L7.79865 12.5305H7.43321ZM9.00418 7.98747C9.00418 8.11229 8.98199 8.25825 8.95356 8.31304C8.86064 8.49541 8.37281 8.83692 7.61628 8.83692C6.84484 8.83692 6.30569 8.4805 6.18816 8.28946C6.15626 8.23745 6.12679 8.09322 6.12679 7.98747V5.64853C6.18226 5.61836 6.28524 5.58543 6.31887 5.58473V7.72709C6.31887 7.96875 6.51511 8.1688 6.74984 8.16845H7.05425C7.29591 8.16845 7.49285 7.97811 7.49285 7.73645V5.61559C7.50706 5.60137 7.53896 5.58543 7.56566 5.58473C7.58403 5.58473 7.60622 5.59201 7.62044 5.59999V7.70906C7.62044 8.02422 7.81356 8.16533 8.00425 8.16533H8.36033C8.60199 8.16533 8.79892 7.96875 8.79892 7.72674L8.79199 5.58439C8.83672 5.58473 8.94697 5.61836 9.00418 5.64922V7.98747Z" fill="#874613"/>
<path d="M9.5 0.5C4.26182 0.5 0 4.76182 0 10C0 15.2382 4.26182 19.5 9.5 19.5C14.7382 19.5 19 15.2382 19 10C19 4.76182 14.7382 0.5 9.5 0.5ZM9.5 18.8069C4.64425 18.8069 0.693431 14.8561 0.693431 10.0003C0.693431 5.1446 4.64425 1.19378 9.5 1.19378C14.3557 1.19378 18.3066 5.1446 18.3066 10.0003C18.3066 14.8561 14.3557 18.8069 9.5 18.8069Z" fill="#874613"/>
<path d="M9.50014 2.3457C5.27957 2.3457 1.8457 5.77957 1.8457 10.0001C1.8457 14.2211 5.27923 17.6546 9.50014 17.6546C13.721 17.6546 17.1546 14.2211 17.1546 10.0001C17.1546 5.77957 13.7207 2.3457 9.50014 2.3457ZM9.50014 17.3079C5.47061 17.3079 2.19242 14.0297 2.19242 10.0001C2.19242 5.97061 5.47061 2.69242 9.50014 2.69242C13.5297 2.69242 16.8079 5.97061 16.8079 10.0001C16.8079 14.0297 13.5293 17.3079 9.50014 17.3079Z" fill="#874613"/>
</g>
<defs>
<clipPath id="clip0_2414_720">
<rect width="19" height="19" fill="white" transform="translate(0 0.5)"/>
</clipPath>
</defs>
</svg>
