<svg width="49" height="13" viewBox="0 0 49 13" fill="none" xmlns="http://www.w3.org/2000/svg">
<g clip-path="url(#clip0_147_2276)">
<path d="M31.1125 8.07855C31.952 8.07855 32.6365 7.37549 32.6365 6.51325C32.6365 5.651 31.952 4.94794 31.1125 4.94794C30.273 4.94794 29.5885 5.651 29.5885 6.51325C29.5885 7.37549 30.273 8.07855 31.1125 8.07855Z" fill="#C58756"/>
<path d="M39.2878 8.07855C40.1273 8.07855 40.8118 7.37549 40.8118 6.51325C40.8118 5.651 40.1273 4.94794 39.2878 4.94794C38.4483 4.94794 37.7638 5.651 37.7638 6.51325C37.7638 7.37549 38.4483 8.07855 39.2878 8.07855Z" fill="#C58756"/>
<path d="M47.476 8.07855C48.3155 8.07855 49 7.37549 49 6.51325C49 5.651 48.3155 4.94794 47.476 4.94794C46.6365 4.94794 45.952 5.651 45.952 6.51325C45.952 7.37549 46.6365 8.07855 47.476 8.07855Z" fill="#C58756"/>
<path d="M0.64564 6.5L30.7896 6.5" stroke="#C58756" stroke-linecap="round" stroke-linejoin="round"/>
<path d="M21.4392 6.5L27.1218 0.663265" stroke="#C58756" stroke-linecap="round" stroke-linejoin="round"/>
<path d="M13.7417 6.5L19.4243 0.663265" stroke="#C58756" stroke-linecap="round" stroke-linejoin="round"/>
<path d="M6.05709 6.5L11.7397 0.663265" stroke="#C58756" stroke-linecap="round" stroke-linejoin="round"/>
<path d="M21.4392 6.5L27.1218 12.3367" stroke="#C58756" stroke-linecap="round" stroke-linejoin="round"/>
<path d="M13.7417 6.5L19.4243 12.3367" stroke="#C58756" stroke-linecap="round" stroke-linejoin="round"/>
<path d="M6.05709 6.5L11.7397 12.3367" stroke="#C58756" stroke-linecap="round" stroke-linejoin="round"/>
</g>
<defs>
<clipPath id="clip0_147_2276">
<rect width="13" height="49" fill="white" transform="matrix(0 -1 -1 0 49 13)"/>
</clipPath>
</defs>
</svg>
