<svg width="24" height="24" viewBox="0 0 24 24" fill="none" xmlns="http://www.w3.org/2000/svg">
<path d="M19.9 13.5H4.1C2.6 13.5 2 14.0647 2 15.4676V19.0324C2 20.4353 2.6 21 4.1 21H19.9C21.4 21 22 20.4353 22 19.0324V15.4676C22 14.0647 21.4 13.5 19.9 13.5Z" stroke="#CD7834" stroke-linecap="round" stroke-linejoin="round"/>
<path d="M19.9 2H4.1C2.6 2 2 2.56471 2 3.96765V7.53235C2 8.93529 2.6 9.5 4.1 9.5H19.9C21.4 9.5 22 8.93529 22 7.53235V3.96765C22 2.56471 21.4 2 19.9 2Z" stroke="#CD7834" stroke-linecap="round" stroke-linejoin="round"/>
</svg>
