<?xml version="1.0" encoding="UTF-8"?>
<svg id="Layer_2" data-name="Layer 2" xmlns="http://www.w3.org/2000/svg" viewBox="0 0 472.49 325.48">
  <defs>
    <style>
      .cls-1 {
        letter-spacing: .09em;
      }

      .cls-2 {
        letter-spacing: -.48em;
      }

      .cls-3 {
        letter-spacing: .05em;
      }

      .cls-4 {
        letter-spacing: .05em;
      }

      .cls-5 {
        letter-spacing: -.52em;
      }

      .cls-6 {
        letter-spacing: .04em;
      }

      .cls-7 {
        font-family: Gyahegi-PersonalUse, 'Gyahegi PersonalUse';
        font-size: 32.35px;
      }

      .cls-7, .cls-8 {
        fill: #b05832;
      }

      .cls-9 {
        letter-spacing: -.56em;
      }

      .cls-10 {
        letter-spacing: .08em;
      }

      .cls-11 {
        letter-spacing: .04em;
      }

      .cls-12 {
        letter-spacing: -.52em;
      }

      .cls-13 {
        letter-spacing: 0em;
      }

      .cls-14 {
        letter-spacing: 0em;
      }

      .cls-8 {
        stroke: #a7673f;
        stroke-miterlimit: 10;
      }

      .cls-15 {
        letter-spacing: .04em;
      }
    </style>
  </defs>
  <g id="Layer_1-2" data-name="Layer 1">
    <g>
      <path class="cls-8" d="M368.65,218.23c3.37,8.03,3.65,15.8-3.54,21.79-5.89,4.9-12.78,5.11-19.36,1.23-8.45-4.98-8.78-12.82-6.18-22.12-3.46,2.59-6.03,4.85-9.1,6.52-6.53,3.56-13.42,5.41-20.69,5.8-5.08.27-10.26.6-15.25-1.06-.1-.03-.21-.05-.32-.03-8.51,1.25-16.15-2.94-24.32-3.95-8.96-1.1-17.44-1.09-25.15,4.36-1.11.78-2.51,1.72-3.84.84-1.64-1.08-.26-2.5.05-3.74,2.74-10.9,8.2-20.27,15.93-28.37,2.61-2.73,5.81-4.72,8.91-6.75,2.21-1.45,1.7-2.17-.03-3.27-5.73-3.63-10.78-8.03-14.95-13.39-4.5-5.79-7.99-12.11-9.73-19.3-.3-1.23-.85-2.55.22-3.65,1.16-1.19,2.37-.2,3.57.09,3.31.81,6.62,1.58,9.94,2.35.83.19,1.81.48,2.4-.31.74-.99-.09-1.87-.67-2.56-5.45-6.43-9.16-13.84-12.51-21.5-3.93-8.99-5.84-18.45-6.63-28.14-.38-4.67.08-9.4-.12-14.09-.15-3.39.82-6.55,1.36-9.79.33-1.97,1.5-2.04,2.57-.62,1.22,1.61,2.02,3.53,3.24,5.14,5.18,6.82,11.96,11.51,20.01,14.26,3.23,1.1,6.22,2.74,9.57,3.58,2.47.62,3.69.28,3.7-2.49.08-14.99,4.82-28.7,11.56-41.85,1.56-3.04,2.85-3.21,4.69-.25,3.89,6.3,8.45,12.03,13.8,17.14,2.87,2.74,3.26,2.74,4.96-.66,5.16-10.31,11.01-20.21,17.18-29.95,5.58-8.81,10.97-17.76,16.14-26.81,2.48-4.33,4.28-9.04,6.37-13.59.47-1.01.37-2.59,1.92-2.59,1.53,0,2.15,1.45,2.52,2.59,1.16,3.59,3.09,6.78,4.76,10.11,5.16,10.27,11.2,20.03,17.35,29.71,5.78,9.09,10.87,18.56,16.26,27.87.21.37.37.77.53,1.17,2.11,5.29,2.46,5.31,6.46,1.49,4.73-4.53,8.81-9.53,12.35-15.05,2.45-3.81,3.48-3.81,5.69.24,3.2,5.89,5.59,12.12,7.67,18.55,2.44,7.56,2.29,15.33,3.59,22.96.3,1.75.81,2.59,2.66,1.98,10.38-3.41,20.66-6.97,28.41-15.31,1.78-1.91,3.11-4.05,4.34-6.3.49-.91,1.02-2.03,2.36-1.8,1.19.21,1.3,1.3,1.45,2.24,1.75,11.06,1.86,22.05-.78,33.04-.92,3.82-1.79,7.62-2.87,11.41-2.87,10.12-8.11,18.93-14.15,27.36-.54.75-1.6,1.41-.88,2.47.57.84,1.56.27,2.39.27,3.57-.03,6.93-1.15,10.27-2.15,2.58-.77,3.29.18,3.4,2.52.13,2.81-1.18,5.13-2.25,7.57-3.48,7.95-8.87,14.55-14.95,20.58-2.09,2.07-4.84,3.45-7.28,5.17-2.47,1.73-2.39,2.49.07,4.04,7.71,4.84,14.06,10.93,18.03,19.33,1.91,4.04,4.11,7.93,5.46,12.23.58,1.84,3.18,2.68,2.26,5.43-.75,2.22-1.41,3.02-3.48,1.44-7.66-5.85-16.44-6.69-25.59-5.5-9.84,1.28-19.44,3.99-29.32,5.07-11.75,1.29-22.97-.06-33.35-6.13-2.52-1.47-4.58-3.48-6.66-5.48-.66-.63-1.13-1.59-2.42-1.37ZM317.59,80.67c.14,1.72.53,3.09,1.47,4.13,4.51,4.98,9.18,9.82,13.27,15.17,1.07,1.4,1.87,1.09,2.36-.59.67-2.35,1.31-4.72,2.22-6.98,3.73-9.17,10.36-16.6,15.28-25.06,1.4-2.41,3.13-1.85,4.53.1,2.23,3.13,4.1,6.55,6.58,9.46,5.15,6.06,7.82,13.31,10.57,20.56.5,1.31-.03,3.5,1.74,3.73,1.51.2,1.65-1.98,2.56-2.96.44-.47.84-.96,1.27-1.44,3.71-4.11,7.36-8.29,11.18-12.31,1.61-1.69,1.65-3.28.7-5.2-1.6-3.25-3.09-6.56-4.72-9.79-3.97-7.9-8.78-15.33-13.45-22.82-3.88-6.23-8.19-12.19-11.76-18.62-1.71-3.08-3.28-6.23-5.01-9.3-1.2-2.12-2.62-2.3-3.49-.42-2.59,5.6-5.71,10.87-9.08,16.05-4.29,6.6-8.21,13.45-12.49,20.06-4.98,7.7-8.93,15.93-13.1,24.05-.38.74-.48,1.62-.64,2.17ZM291.89,162.31c-3.23-.33-6.39.39-9.57.66-1.12.1-2.67-.14-3.03,1.19-.3,1.11,1.12,1.66,1.83,2.41.36.38.85.65,1.27.98,12.19,9.54,26.07,16.18,39.76,23.13,9.77,4.96,20.25,8.44,29.62,14.24,1.88,1.16,3.72,1.21,5.7.06,11.26-6.54,23.46-11.17,35.01-17.13,12.23-6.31,24.29-12.87,35.33-21.15.82-.62,2.09-1.15,1.81-2.38-.28-1.23-1.67-1.26-2.66-1.38-6.35-.77-12.69-1.31-19.02.31-2.35.6-4.77,1.05-7.18,1.24-5.24.41-10.04,1.77-13.87,5.61-.76.76-1.6,1.35-2.62,1.78-4.5,1.93-8.03,5.13-11.29,8.7-5.54,6.06-11.05,12.13-15.84,18.83-1.24,1.73-3.17,2.62-4.75.39-2.72-3.84-5.96-7.23-8.86-10.88-4.54-5.71-9.37-11.04-15.27-15.32-4.4-3.2-8.79-6.95-13.96-8.28-7.26-1.86-14.83-2.83-22.4-3.01ZM448.69,218.75c1.6,0,3.2.03,4.8-.01,1.02-.03,2.36.92,3-.12.76-1.24-.33-2.44-1.06-3.46-5.97-8.32-12.15-15.88-22.76-19.33-5.42-1.76-10.87-2.53-16.21-3.14-9.03-1.03-17.89.91-26.4,4.7-8.85,3.94-17.68,7.89-26.19,12.53-.72.39-1.81.72-1.41,1.8.4,1.11,1.36,1.94,2.42,2.46.94.46,1.23-.47,1.67-1.05,2.78-3.69,4.6-3.73,7.91-.42,4.57,4.57,9.56,8.39,16.05,10.05,10.22,2.62,20.29,1.54,30.43-.42,9.17-1.77,18.36-3.51,27.76-3.59ZM291.05,192.59c-7.48.19-17.53,2.39-26.11,9.25-4.5,3.6-7.73,8.25-10.65,13.07-1.84,3.05-1.16,3.74,2.46,3.8,3.95.06,7.91-.33,11.83.29,10.94,1.74,21.84,3.86,32.83,5.17,13.38,1.59,25.09-2.38,34.44-12.4,1.98-2.12,4.26-1.86,6.02.74.49.73.54,2.12,1.89,1.71,1.16-.35,2.18-1.24,2.45-2.37.54-2.2-1.6-2.55-2.85-3.18-5.34-2.67-11.01-4.75-16.13-7.75-10.26-6.02-21.35-8.29-36.21-8.32ZM312.05,128.05c1.54,5.76,3.13,11.46,6.13,16.71,5.1,8.95,11.59,16.85,18.25,24.63,4.99,5.83,9.93,11.69,14.97,17.48,2.99,3.44,3.43,3.38,6.33.02,2.44-2.82,4.96-5.58,7.34-8.45,7.56-9.08,15.73-17.68,22.2-27.63,4.37-6.72,8.38-13.62,9.81-21.67.16-.89.87-2.01-.15-2.65-.91-.57-1.83.33-2.63.76-3.2,1.72-6,4.03-8.95,6.12-11.78,8.33-20.58,18.97-25.96,32.41-1.2,2.98-1.8,6.12-2.93,9.1-.35.93-.58,2.29-1.89,2.34-1.42.06-1.47-1.36-1.79-2.3-1.36-3.92-2.58-7.89-4-11.79-2.49-6.85-7.16-12.34-11.74-17.8-6.44-7.67-14.53-13.41-23.11-18.47-1.38-.81-2-.46-1.88,1.18ZM436.38,156.35c2.31.3,3.58-.29,4.77-1.36,3.99-3.58,6.86-8.03,9.87-12.4,5.31-7.73,8.92-16.18,11.33-25.18,1.73-6.49,2.63-13.1,2.76-19.82.02-.82.69-1.82-.09-2.42-.99-.76-1.76.31-2.5.8-3.66,2.36-7.04,5.31-10.97,7.05-5.62,2.5-11.6,4.24-17.49,6.09-2.51.79-3.88,2.07-3.75,4.75.19,3.69-.99,7.14-2.11,10.55-3.34,10.18-7.58,19.87-15.81,27.24-.7.63-1.38,1.48-.98,2.54.42,1.12,1.53,1.11,2.46,1.03,7.8-.66,15.45,1.53,22.51,1.13ZM273.09,156.52c3.16-.53,6.37-.47,9.55-.71,4.68-.37,9.35-.6,14.05-.58.72,0,1.63.18,2.04-.58.55-1.01-.49-1.49-.98-2.12-.26-.33-.6-.61-.89-.91-10.41-10.76-16.84-23.44-18.5-38.41-.21-1.9-.88-2.98-2.85-3.66-9.52-3.31-19.24-6.21-27.44-12.46-.87-.67-1.84-1.94-3.03-1.29-1.17.64-.67,2.14-.63,3.25.74,20.61,8.05,38.59,21.82,53.91,1.75,1.94,3.8,3.85,6.86,3.56ZM342.39,132.74c.48,2.91-1.11,6.33.99,8.7,3.72,4.19,6.34,9.03,9.3,13.68,1.47,2.31,2.5,2.21,3.88-.21,2.7-4.74,5.91-9.12,9.45-13.26.98-1.15,1.34-2.27,1.14-3.79-.56-4.03-.36-8.05.06-12.1.61-5.91,1.85-11.73,1.6-17.77-.45-11.09-6.19-19.7-12.41-28.16-.85-1.16-2.09-1.7-3.15-.18-2.92,4.17-6.21,8.16-8.54,12.64-4.14,7.98-5.01,16.65-3.76,25.53.7,4.95,1.98,9.84,1.45,14.92ZM424.51,97.87c-.23-8.27-2.27-17.69-5.79-26.79-1.26-3.26-2.19-3.33-4.55-.66-3.51,3.98-6.65,8.31-10.91,11.59-1.61,1.23-2.04,2.87-1.48,4.84,2.19,7.81,3.29,15.82,4.14,23.86.19,1.77.98,1.83,2.36,1.23,3.5-1.54,6.98-3.15,10.56-4.5,5.66-2.14,5.69-2.07,5.67-9.56ZM284.75,100.54c-1.02,3.17,1.15,5,4.4,6.27,3.37,1.32,6.69,2.75,10.01,4.19,3.49,1.52,3.98,1.2,4.2-2.6.41-7.03,1.58-13.94,3.84-20.61.73-2.15.48-3.68-1.08-5.17-4-3.84-7.71-7.94-11.18-12.26-2.19-2.72-3.19-2.53-4.47.84-3.5,9.21-5.36,18.75-5.72,29.33ZM398.86,110.72c-.49-6.02-1.12-12.05-3.02-17.89-.74-2.29-1.36-2.22-2.89-.65-9.93,10.19-18.05,21.32-19.4,36.12-.11,1.16-.6,2.44.53,3.27,1.28.94,2.17-.25,3.07-.92,5.29-3.99,10.54-8.1,16.45-11.08,3.91-1.97,5.78-4.5,5.25-8.84ZM335.46,128.6c-.31-2.34-.39-4.94-1.02-7.39-3.02-11.77-10.23-20.86-18.83-29.04-1.44-1.37-1.67-.71-2.12.84-1.54,5.32-2.35,10.7-2.66,16.26-.34,6.19.32,7.68,5.64,10.76,5.33,3.09,10.66,6.26,15.17,10.57.81.77,1.63,2.05,2.94,1.4,1.25-.62.7-2.09.89-3.4ZM423.39,115.82c.05-2.72-1.59-2.42-3.02-1.83-2.16.89-4.38,1.69-6.49,2.65-4.94,2.24-9.5,4.57-9.64,11.52-.09,4.17-1.63,8.52-3.61,12.51-2.25,4.56-3.85,9.44-7.06,13.51-.49.62-1.18,1.43-.55,2.31.49.69,1.18.29,1.69-.08,3.6-2.63,7.45-5.01,10.73-8.01,6.37-5.81,11.09-12.89,14.48-20.84,1.64-3.84,2.88-7.79,3.47-11.73ZM316.73,157.5c.36-1.16-.17-1.63-.49-2.15-6.13-10.06-11.96-20.24-12.35-32.48-.03-1.03-.56-1.87-1.5-2.3-4.85-2.2-9.68-4.42-14.58-6.5-1.71-.73-2.45.14-1.96,1.91,1.24,4.5,2.42,9.01,4.27,13.34,5.37,12.63,14.71,21.42,26.61,28.17ZM278.1,187.1c3.85-.82,7.61-1.56,11.46-1.73,1.37-.06,3.36.26,3.78-1.03.51-1.56-1.59-1.98-2.66-2.65-7.96-4.97-15.83-10.05-22.48-16.76-1.14-1.16-2.62-1.32-4.14-1.33-3.3-.03-6.61-.09-9.91-.1-.8,0-1.76-.96-2.33-.03-.58.95.42,1.76.85,2.58,3.25,6.19,8.27,10.81,13.65,15.04,3.53,2.78,7.47,4.89,11.81,6.02ZM430.51,186.96c1.34.17,2.13-.52,3.04-.75,4.12-1.08,7.4-3.81,10.76-6.13,1.73-1.19,2.38-3.51,4.9-4.83,4.12-2.15,6.18-6.85,8.31-11.04.64-1.25.13-1.85-1.26-1.49-3.55.91-7.18.85-10.8.95-1.87.05-3.35.85-4.71,2.29-1.74,1.84-3.71,3.57-5.88,4.85-5.69,3.35-10.47,8.02-16.4,10.99-.77.38-1.44,1.05-1.24,2.04.2.99,1.1,1.2,1.94,1.4,3.83.93,7.89.38,11.34,1.72ZM363.61,227.47c.37-2.38-.73-4.2-2.14-5.85-6.59-7.73-7.11-8.24-14.01.6-2.11,2.71-.77,10.6,1.85,12.44,3.16,2.22,6.45,2.53,9.82.34,2.76-1.79,4.26-4.3,4.49-7.53Z"/>
      <text class="cls-7" transform="translate(0 317.39)"><tspan class="cls-3" x="0" y="0">D</tspan><tspan class="cls-15" x="23.03" y="0">est</tspan><tspan class="cls-5" x="66.83" y="0"> </tspan><tspan class="cls-15" x="56.77" y="0">in</tspan><tspan class="cls-11" x="85.01" y="0">a</tspan><tspan class="cls-4" x="101.83" y="0">t</tspan><tspan class="cls-12" x="114.05" y="0"> </tspan><tspan class="cls-4" x="103.99" y="0">i</tspan><tspan class="cls-6" x="113.08" y="0">on</tspan><tspan class="cls-14" x="151.51" y="0"> </tspan><tspan class="cls-13" x="158.56" y="0">W</tspan><tspan class="cls-6" x="186.22" y="0">edding Bha</tspan><tspan class="cls-2" x="354.03" y="0"> </tspan><tspan class="cls-1" x="345.33" y="0">r</tspan><tspan class="cls-9" x="358.72" y="0"> </tspan><tspan class="cls-10" x="347.37" y="0">a</tspan><tspan class="cls-6" x="365.64" y="0">t</tspan><tspan class="cls-5" x="377.71" y="0"> </tspan></text>
    </g>
  </g>
</svg>