<svg width="19" height="20" viewBox="0 0 19 20" fill="none" xmlns="http://www.w3.org/2000/svg">
<path d="M9 18.0625C4.5525 18.0625 0.9375 14.4475 0.9375 10C0.9375 5.5525 4.5525 1.9375 9 1.9375C13.4475 1.9375 17.0625 5.5525 17.0625 10C17.0625 14.4475 13.4475 18.0625 9 18.0625ZM9 3.0625C5.175 3.0625 2.0625 6.175 2.0625 10C2.0625 13.825 5.175 16.9375 9 16.9375C12.825 16.9375 15.9375 13.825 15.9375 10C15.9375 6.175 12.825 3.0625 9 3.0625Z" fill="#874613"/>
<path d="M11.1278 8.44602L10.8864 9.26989H6.28409L6.52557 8.44602H11.1278ZM8.96875 14L6.36932 10.8182L6.35511 10.2216H7.64773C7.9839 10.2216 8.27036 10.1742 8.5071 10.0795C8.74384 9.98248 8.92495 9.83807 9.05043 9.64631C9.1759 9.45218 9.23864 9.20833 9.23864 8.91477C9.23864 8.48153 9.10843 8.14181 8.84801 7.8956C8.58759 7.64702 8.1875 7.52273 7.64773 7.52273H6.28409L6.52557 6.72727H7.64773C8.22538 6.72727 8.69886 6.82315 9.06818 7.01491C9.43987 7.20431 9.71449 7.46473 9.89205 7.79616C10.072 8.12524 10.1619 8.49811 10.1619 8.91477C10.1619 9.29119 10.0791 9.63802 9.91335 9.95526C9.75 10.2701 9.48722 10.5234 9.125 10.7152C8.76515 10.907 8.2893 11.0028 7.69744 11.0028H7.67614L10.0767 13.9432V14H8.96875ZM11.1278 6.72727L10.8864 7.55114L7.2642 7.52273L7.50568 6.72727H11.1278Z" fill="#874613"/>
</svg>
