<svg width="109" height="108" viewBox="0 0 109 108" fill="none" xmlns="http://www.w3.org/2000/svg">
<g clip-path="url(#clip0_2060_45745)">
<path d="M104.323 53.6654C105.979 51.7375 107.139 49.4349 107.703 46.9571C108.267 44.4794 108.218 41.9015 107.56 39.447C106.902 36.9925 105.656 34.7355 103.928 32.8718C102.201 31.0082 100.045 29.5942 97.6471 28.7525C98.1169 26.2551 97.9702 23.6807 97.2198 21.2528C96.4694 18.8249 95.1379 16.6168 93.3409 14.82C91.5439 13.0232 89.3355 11.692 86.9075 10.9419C84.4796 10.1918 81.9052 10.0455 79.4078 10.5156C78.5668 8.11734 77.153 5.96066 75.2894 4.23277C73.4257 2.50487 71.1685 1.25799 68.7136 0.600386C66.2587 -0.0572225 63.6804 -0.105682 61.2026 0.459215C58.7247 1.02411 56.4222 2.18529 54.4949 3.84193C52.5671 2.18643 50.2644 1.0263 47.7867 0.462181C45.309 -0.101935 42.731 -0.0529976 40.2765 0.604746C37.822 1.26249 35.565 2.50917 33.7014 4.23665C31.8378 5.96412 30.4238 8.12022 29.5821 10.5179C27.0848 10.0485 24.5107 10.1955 22.0831 10.9461C19.6556 11.6967 17.4478 13.0283 15.6512 14.8252C13.8547 16.6222 12.5237 18.8304 11.7738 21.2581C11.0238 23.6859 10.8775 26.26 11.3474 28.7571C8.94977 29.5989 6.79367 31.0129 5.0662 32.8765C3.33872 34.7401 2.09203 36.9971 1.43428 39.4516C0.776542 41.9061 0.727597 44.4841 1.29171 46.9618C1.85583 49.4395 3.01598 51.7422 4.67149 53.67C3.01548 55.5978 1.85497 57.9006 1.29069 60.3786C0.726416 62.8566 0.775403 65.4348 1.43343 67.8896C2.09147 70.3443 3.33864 72.6014 5.06671 74.4649C6.79477 76.3283 8.95154 77.7419 11.3498 78.5829C10.8794 81.0801 11.0255 83.6544 11.7756 86.0823C12.5257 88.5102 13.857 90.7184 15.654 92.5151C17.4509 94.3118 19.6592 95.6429 22.0872 96.3926C24.5152 97.1424 27.0896 97.2882 29.5867 96.8175C30.4284 99.2152 31.8424 101.371 33.706 103.099C35.5697 104.826 37.8266 106.073 40.2812 106.731C42.7357 107.388 45.3136 107.437 47.7913 106.873C50.2691 106.309 52.5717 105.149 54.4996 103.493C56.4274 105.149 58.7302 106.31 61.2082 106.874C63.6862 107.439 66.2644 107.39 68.7191 106.732C71.1739 106.073 73.4309 104.826 75.2944 103.098C77.1579 101.37 78.5715 99.2134 79.4125 96.8152C81.9098 97.2855 84.4841 97.1392 86.912 96.3891C89.34 95.639 91.5482 94.3078 93.3451 92.5109C95.142 90.714 96.4732 88.5058 97.2233 86.0778C97.9734 83.6499 98.1197 81.0756 97.6494 78.5783C100.047 77.7368 102.204 76.3228 103.931 74.4591C105.659 72.5954 106.905 70.3382 107.563 67.8836C108.22 65.4289 108.269 62.8508 107.704 60.3731C107.14 57.8954 105.979 55.5929 104.323 53.6654Z" fill="#A56E50"/>
<path d="M44.875 74.1253L29.9807 59.2403C29.4154 58.6741 29.0979 57.9068 29.0979 57.1067C29.0979 56.3067 29.4154 55.5393 29.9807 54.9732L31.7902 53.1613C32.3564 52.5961 33.1237 52.2786 33.9237 52.2786C34.7238 52.2786 35.4912 52.5961 36.0573 53.1613L46.8843 63.9813L72.3825 36.8849C72.9312 36.3027 73.6884 35.9621 74.488 35.9377C75.2876 35.9133 76.0642 36.2072 76.6473 36.7548L78.5056 38.5086C79.0885 39.0573 79.4296 39.8151 79.454 40.6152C79.4784 41.4154 79.1841 42.1925 78.6357 42.7757L49.2141 74.0579C48.9371 74.3532 48.6035 74.5897 48.2333 74.7534C47.863 74.9172 47.4636 75.0048 47.0588 75.0111C46.654 75.0174 46.2521 74.9422 45.8769 74.79C45.5017 74.6379 45.161 74.4118 44.875 74.1253Z" fill="white"/>
</g>
<defs>
<clipPath id="clip0_2060_45745">
<rect width="107.196" height="107.196" fill="white" transform="translate(0.901855 0.0700684)"/>
</clipPath>
</defs>
</svg>
