<svg width="20" height="14" viewBox="0 0 20 14" fill="none" xmlns="http://www.w3.org/2000/svg">
<path d="M7.89513 6.8071C9.34852 6.8071 10.5267 5.6289 10.5267 4.17552C10.5267 2.72215 9.34852 1.54395 7.89513 1.54395C6.44175 1.54395 5.26355 2.72215 5.26355 4.17552C5.26355 5.6289 6.44175 6.8071 7.89513 6.8071Z" stroke="#874613" stroke-miterlimit="10" stroke-linecap="round" stroke-linejoin="round"/>
<path d="M10.6028 7.85986C11.7759 8.77483 12.5498 10.1812 12.6313 11.7739C12.6394 11.9348 12.5091 12.0704 12.3543 12.0704H2.39084C2.22791 12.0704 2.09756 11.9348 2.10571 11.7739C2.19532 10.1812 2.96927 8.77483 4.15054 7.85986" stroke="#874613" stroke-miterlimit="10" stroke-linecap="round" stroke-linejoin="round"/>
<path d="M14.2097 8.91267C15.0817 8.91267 15.7886 7.9701 15.7886 6.80741C15.7886 5.64472 15.0817 4.70215 14.2097 4.70215C13.3377 4.70215 12.6307 5.64472 12.6307 6.80741C12.6307 7.9701 13.3377 8.91267 14.2097 8.91267Z" stroke="#874613" stroke-miterlimit="10" stroke-linecap="round" stroke-linejoin="round"/>
<path d="M16.974 8.91211C17.5028 9.67473 17.8476 10.6951 17.8936 11.8122C17.9013 11.9626 17.817 12.07 17.7097 12.07H14.7362" stroke="#874613" stroke-miterlimit="10" stroke-linecap="round" stroke-linejoin="round"/>
</svg>
