<svg width="19" height="20" viewBox="0 0 19 20" fill="none" xmlns="http://www.w3.org/2000/svg">
<g clip-path="url(#clip0_448_137935)">
<path d="M12.0359 4.70874H11.6705C11.5537 4.70874 11.4389 4.75659 11.3564 4.8398C11.2763 4.91989 11.233 5.0246 11.234 5.11752L10.5163 10.4285C10.4893 10.6268 10.5843 10.8605 10.7441 10.9846C10.7441 10.9846 11.0384 11.2051 11.1886 11.3099L11.225 11.3255L11.2319 15.2686C11.2319 15.51 11.4282 15.7072 11.6705 15.7072H12.0359C12.2776 15.7072 12.4749 15.5107 12.4749 15.2686V5.14664C12.4738 4.90533 12.2776 4.70874 12.0359 4.70874ZM11.0114 10.6372C10.9778 10.6109 10.9452 10.5294 10.95 10.4874L11.6414 5.36438C11.6577 5.24407 11.752 5.14664 11.8529 5.14664C11.9538 5.14664 12.0353 5.24476 12.0353 5.36611V12.5306H11.6657L11.6632 11.2266C11.6632 11.1639 11.6286 11.0949 11.5786 11.0581L11.0114 10.6372ZM11.8529 15.2683C11.752 15.2676 11.6702 15.1702 11.6702 15.0488L11.6667 13.2237H12.0353V15.0488C12.0356 15.1705 11.9538 15.2683 11.8529 15.2683Z" fill="#874613"/>
<path d="M8.79164 5.14673C8.55414 5.14673 8.35998 5.34332 8.35998 5.58532V7.50855C8.35998 7.6299 8.29272 7.72768 8.20951 7.72768C8.12664 7.72768 8.05903 7.6299 8.05903 7.5089C8.05869 6.95936 8.05869 5.56764 8.05869 5.56764C8.05869 5.31593 7.8035 5.14673 7.55144 5.14673C7.32122 5.14673 7.05703 5.34297 7.05703 5.59468V7.51306C7.05703 7.63441 6.98976 7.73218 6.90655 7.73218C6.82369 7.73218 6.75642 7.63441 6.75642 7.51306V5.58532C6.75642 5.34366 6.56573 5.14673 6.33135 5.14673C6.19474 5.14673 5.6875 5.25664 5.6875 5.58532V7.98806C5.6875 8.10941 5.7142 8.35766 5.8137 8.51992C5.96071 8.75846 6.42358 9.10726 7.11701 9.22895C7.04073 9.30766 6.99358 9.41445 6.99358 9.53198V15.2684C6.99358 15.5097 7.19016 15.707 7.43217 15.707H7.79761C8.03962 15.707 8.23655 15.5104 8.23655 15.2684V13.2242H8.23724V12.5307H8.23655V9.53198C8.23655 9.41375 8.18905 9.30697 8.11277 9.22791C8.73374 9.11489 9.19383 8.80769 9.34396 8.51229C9.43723 8.32888 9.44243 8.04319 9.44243 7.98806V5.58532C9.44277 5.25698 8.92963 5.14673 8.79164 5.14673ZM7.799 15.0493C7.799 15.1706 7.71717 15.2687 7.61628 15.2687C7.51538 15.2687 7.43321 15.1706 7.43321 15.0493V13.2242H7.799V15.0493ZM7.43321 12.5307V9.75111C7.43321 9.62976 7.51504 9.53164 7.61593 9.53164C7.71683 9.53164 7.7983 9.62976 7.7983 9.75111L7.79865 12.5307H7.43321ZM9.00418 7.98771C9.00418 8.11253 8.98199 8.2585 8.95356 8.31328C8.86064 8.49565 8.37281 8.83717 7.61628 8.83717C6.84484 8.83717 6.30569 8.48074 6.18816 8.2897C6.15626 8.23769 6.12679 8.09346 6.12679 7.98771V5.64877C6.18226 5.61861 6.28524 5.58567 6.31887 5.58498V7.72733C6.31887 7.96899 6.51511 8.16905 6.74984 8.1687H7.05425C7.29591 8.1687 7.49285 7.97835 7.49285 7.73669V5.61583C7.50706 5.60162 7.53896 5.58567 7.56566 5.58498C7.58403 5.58498 7.60622 5.59226 7.62044 5.60023V7.7093C7.62044 8.02447 7.81356 8.16558 8.00425 8.16558H8.36033C8.60199 8.16558 8.79892 7.96899 8.79892 7.72698L8.79199 5.58463C8.83672 5.58498 8.94697 5.61861 9.00418 5.64947V7.98771Z" fill="#874613"/>
<path d="M9.5 0.5C4.26182 0.5 0 4.76182 0 10C0 15.2382 4.26182 19.5 9.5 19.5C14.7382 19.5 19 15.2382 19 10C19 4.76182 14.7382 0.5 9.5 0.5ZM9.5 18.8069C4.64425 18.8069 0.693431 14.8561 0.693431 10.0003C0.693431 5.1446 4.64425 1.19378 9.5 1.19378C14.3557 1.19378 18.3066 5.1446 18.3066 10.0003C18.3066 14.8561 14.3557 18.8069 9.5 18.8069Z" fill="#874613"/>
<path d="M9.50014 2.34595C5.27957 2.34595 1.8457 5.77982 1.8457 10.0004C1.8457 14.2213 5.27923 17.6548 9.50014 17.6548C13.721 17.6548 17.1546 14.2213 17.1546 10.0004C17.1546 5.77982 13.7207 2.34595 9.50014 2.34595ZM9.50014 17.3081C5.47061 17.3081 2.19242 14.0299 2.19242 10.0004C2.19242 5.97086 5.47061 2.69266 9.50014 2.69266C13.5297 2.69266 16.8079 5.97086 16.8079 10.0004C16.8079 14.0299 13.5293 17.3081 9.50014 17.3081Z" fill="#874613"/>
</g>
<defs>
<clipPath id="clip0_448_137935">
<rect width="19" height="19" fill="white" transform="translate(0 0.5)"/>
</clipPath>
</defs>
</svg>
