<svg width="20" height="14" viewBox="0 0 20 14" fill="none" xmlns="http://www.w3.org/2000/svg">
<path d="M7.89525 6.8071C9.34864 6.8071 10.5268 5.6289 10.5268 4.17552C10.5268 2.72215 9.34864 1.54395 7.89525 1.54395C6.44187 1.54395 5.26367 2.72215 5.26367 4.17552C5.26367 5.6289 6.44187 6.8071 7.89525 6.8071Z" stroke="#874613" stroke-miterlimit="10" stroke-linecap="round" stroke-linejoin="round"/>
<path d="M10.6029 7.85962C11.776 8.77458 12.55 10.1809 12.6314 11.7736C12.6396 11.9346 12.5092 12.0701 12.3544 12.0701H2.39097C2.22803 12.0701 2.09768 11.9346 2.10583 11.7736C2.19544 10.1809 2.96939 8.77458 4.15067 7.85962" stroke="#874613" stroke-miterlimit="10" stroke-linecap="round" stroke-linejoin="round"/>
<path d="M14.2098 8.91243C15.0819 8.91243 15.7888 7.96986 15.7888 6.80717C15.7888 5.64448 15.0819 4.7019 14.2098 4.7019C13.3378 4.7019 12.6309 5.64448 12.6309 6.80717C12.6309 7.96986 13.3378 8.91243 14.2098 8.91243Z" stroke="#874613" stroke-miterlimit="10" stroke-linecap="round" stroke-linejoin="round"/>
<path d="M16.9741 8.91235C17.5029 9.67497 17.8478 10.6954 17.8937 11.8125C17.9014 11.9628 17.8171 12.0702 17.7098 12.0702H14.7363" stroke="#874613" stroke-miterlimit="10" stroke-linecap="round" stroke-linejoin="round"/>
</svg>
